<svg xmlns="http://www.w3.org/2000/svg" xmlns:xlink="http://www.w3.org/1999/xlink" width="48" zoomAndPan="magnify" viewBox="0 0 36 36.000001" height="48" preserveAspectRatio="xMidYMid meet" version="1.2"><defs><clipPath id="de67102ff1"><path d="M 4 3.570312 L 32 3.570312 L 32 31.296875 L 4 31.296875 Z M 4 3.570312 "/></clipPath><clipPath id="6d210d9547"><path d="M 0.488281 15 L 4 15 L 4 25 L 0.488281 25 Z M 0.488281 15 "/></clipPath><clipPath id="9399444689"><path d="M 32 15 L 35.511719 15 L 35.511719 25 L 32 25 Z M 32 15 "/></clipPath></defs><g id="d01d28a7a2"><g clip-rule="nonzero" clip-path="url(#de67102ff1)"><path style=" stroke:none;fill-rule:evenodd;fill:#634c7d;fill-opacity:1;" d="M 25.253906 31.296875 L 10.523438 31.296875 C 7.28125 31.296875 4.648438 28.664062 4.648438 25.441406 L 4.648438 15.894531 C 4.648438 12.648438 7.28125 10.015625 10.523438 10.015625 L 17.257812 10.015625 L 17.277344 7.773438 C 16.398438 7.507812 15.746094 6.691406 15.746094 5.710938 C 15.746094 4.527344 16.726562 3.570312 17.910156 3.570312 C 19.09375 3.570312 20.074219 4.527344 20.074219 5.710938 C 20.074219 6.691406 19.398438 7.527344 18.5 7.792969 L 18.480469 10.015625 L 25.253906 10.015625 C 28.476562 10.015625 31.109375 12.648438 31.109375 15.894531 L 31.109375 25.460938 C 31.109375 28.683594 28.476562 31.296875 25.253906 31.296875 Z M 12.359375 22.035156 C 10.625 22.035156 9.257812 20.667969 9.257812 18.953125 C 9.257812 17.21875 10.625 15.851562 12.359375 15.851562 C 14.09375 15.851562 15.441406 17.21875 15.441406 18.953125 C 15.441406 20.667969 14.09375 22.035156 12.359375 22.035156 Z M 12.359375 17.078125 C 11.300781 17.078125 10.484375 17.890625 10.484375 18.953125 C 10.484375 19.992188 11.300781 20.808594 12.359375 20.808594 C 13.402344 20.808594 14.238281 19.992188 14.238281 18.953125 C 14.238281 17.890625 13.402344 17.078125 12.359375 17.078125 Z M 23.4375 21.910156 C 21.703125 21.910156 20.316406 20.523438 20.316406 18.808594 C 20.316406 17.097656 21.703125 15.710938 23.4375 15.710938 C 25.132812 15.710938 26.519531 17.097656 26.519531 18.808594 C 26.519531 20.523438 25.132812 21.910156 23.4375 21.910156 Z M 23.4375 16.933594 C 22.378906 16.933594 21.542969 17.789062 21.542969 18.808594 C 21.542969 19.851562 22.378906 20.707031 23.4375 20.707031 C 24.480469 20.707031 25.296875 19.851562 25.296875 18.808594 C 25.296875 17.75 24.460938 16.933594 23.4375 16.933594 Z M 17.664062 25.625 C 16.503906 25.625 15.480469 25.074219 14.910156 24.585938 C 14.644531 24.359375 14.625 23.953125 14.851562 23.726562 C 15.074219 23.484375 15.441406 23.441406 15.707031 23.6875 C 15.890625 23.851562 17.664062 25.257812 19.359375 23.707031 C 19.601562 23.484375 19.96875 23.484375 20.234375 23.726562 C 20.460938 23.992188 20.460938 24.359375 20.214844 24.605469 C 19.359375 25.339844 18.480469 25.625 17.664062 25.625 Z M 17.664062 25.625 "/></g><g clip-rule="nonzero" clip-path="url(#6d210d9547)"><path style=" stroke:none;fill-rule:evenodd;fill:#634c7d;fill-opacity:1;" d="M 3.425781 24.746094 L 3.179688 24.746094 C 1.710938 24.746094 0.488281 23.542969 0.488281 22.054688 L 0.488281 17.890625 C 0.488281 16.402344 1.710938 15.179688 3.179688 15.179688 L 3.464844 15.179688 C 3.445312 15.402344 3.425781 15.648438 3.425781 15.894531 Z M 3.425781 24.746094 "/></g><g clip-rule="nonzero" clip-path="url(#9399444689)"><path style=" stroke:none;fill-rule:evenodd;fill:#634c7d;fill-opacity:1;" d="M 32.578125 24.746094 L 32.335938 24.746094 L 32.335938 15.894531 C 32.335938 15.628906 32.3125 15.382812 32.292969 15.160156 L 32.578125 15.160156 C 34.089844 15.160156 35.3125 16.363281 35.3125 17.871094 L 35.3125 22.054688 C 35.3125 23.5625 34.089844 24.746094 32.578125 24.746094 Z M 32.578125 24.746094 "/></g></g></svg>